# xmcd CD database file
#
# Track frame offsets:
#	150
#	38412
#	77590
#	107880
#	156805
#	202142
#	237562
#	258532
#	281242
#	304540
#
# Disc length: 4306 seconds
#
# Revision: 0
# Processed by: cddbd v1.5.2PL0 Copyright (c) Steve Scherf et al.
# Submitted via: CDex 1.51
#
DISCID=8710d00a
DTITLE=Vaughan Hawthorne-Nelson  - Emergence
DYEAR=1996
DGENRE=Jazz
TTITLE0=Times Are A Changing
TTITLE1=A Tale Of Tomorrow
TTITLE2=A Warrior's Way
TTITLE3=Other Ways Of Knowing
TTITLE4=Emergence
TTITLE5=Forgotten Silence
TTITLE6=Inner Journey
TTITLE7=Visions Of The Self
TTITLE8=A Place Called Home
TTITLE9=A Song For The Ancestors
EXTD=YEAR: 1996
EXTT0=
EXTT1=
EXTT2=
EXTT3=
EXTT4=
EXTT5=
EXTT6=
EXTT7=
EXTT8=
EXTT9=
PLAYORDER=
